<mxfile host="app.diagrams.net" agent="Mozilla/5.0 (Windows NT 10.0; Win64; x64; rv:128.0) Gecko/20100101 Firefox/128.0" version="26.0.5" pages="2">
  <diagram name="Página-1" id="rawJ5VvmW-M07FemT75N">
    <mxGraphModel dx="829" dy="537" grid="1" gridSize="10" guides="1" tooltips="1" connect="1" arrows="1" fold="1" page="1" pageScale="1" pageWidth="1654" pageHeight="1169" background="none" math="0" shadow="0">
      <root>
        <object label="" id="0">
          <mxCell />
        </object>
        <mxCell id="1" parent="0" />
        <mxCell id="6fb1cv3qGu5dzmVjiC8O-66" value="" style="rounded=0;whiteSpace=wrap;html=1;fillColor=none;shadow=0;glass=0;" vertex="1" parent="1">
          <mxGeometry x="340" y="20" width="240" height="1000" as="geometry" />
        </mxCell>
        <mxCell id="AxYj2N3HpsvX6qZxRmMq-53" value="" style="rounded=0;whiteSpace=wrap;html=1;fillColor=none;" parent="1" vertex="1">
          <mxGeometry x="20" y="20" width="280" height="880" as="geometry" />
        </mxCell>
        <mxCell id="AxYj2N3HpsvX6qZxRmMq-3" value="" style="edgeStyle=orthogonalEdgeStyle;rounded=0;orthogonalLoop=1;jettySize=auto;html=1;fontFamily=Tahoma;fontSize=10;fontStyle=0" parent="1" source="AxYj2N3HpsvX6qZxRmMq-1" target="AxYj2N3HpsvX6qZxRmMq-2" edge="1">
          <mxGeometry relative="1" as="geometry" />
        </mxCell>
        <mxCell id="AxYj2N3HpsvX6qZxRmMq-1" value="Início" style="rounded=1;whiteSpace=wrap;html=1;fontSize=10;fontFamily=Tahoma;fillColor=#d5e8d4;strokeColor=#82b366;fontStyle=0" parent="1" vertex="1">
          <mxGeometry x="120" y="40" width="40" height="40" as="geometry" />
        </mxCell>
        <mxCell id="AxYj2N3HpsvX6qZxRmMq-5" value="" style="edgeStyle=orthogonalEdgeStyle;rounded=0;orthogonalLoop=1;jettySize=auto;html=1;fontFamily=Tahoma;fontSize=10;fontStyle=0" parent="1" source="AxYj2N3HpsvX6qZxRmMq-2" target="AxYj2N3HpsvX6qZxRmMq-4" edge="1">
          <mxGeometry relative="1" as="geometry" />
        </mxCell>
        <mxCell id="AxYj2N3HpsvX6qZxRmMq-2" value="1. Cadastro do paciente" style="rounded=0;whiteSpace=wrap;html=1;fontSize=10;fontFamily=Tahoma;fillColor=#dae8fc;strokeColor=#6c8ebf;fontStyle=0" parent="1" vertex="1">
          <mxGeometry x="80" y="120" width="120" height="40" as="geometry" />
        </mxCell>
        <mxCell id="AxYj2N3HpsvX6qZxRmMq-8" value="" style="edgeStyle=orthogonalEdgeStyle;rounded=0;orthogonalLoop=1;jettySize=auto;html=1;fontFamily=Tahoma;fontSize=10;fontStyle=0" parent="1" source="AxYj2N3HpsvX6qZxRmMq-4" target="AxYj2N3HpsvX6qZxRmMq-7" edge="1">
          <mxGeometry relative="1" as="geometry" />
        </mxCell>
        <mxCell id="AxYj2N3HpsvX6qZxRmMq-4" value="2. Agendamento de avaliação" style="rounded=0;whiteSpace=wrap;html=1;fontSize=10;fontFamily=Tahoma;fillColor=#dae8fc;strokeColor=#6c8ebf;fontStyle=0" parent="1" vertex="1">
          <mxGeometry x="80" y="200" width="120" height="40" as="geometry" />
        </mxCell>
        <mxCell id="AxYj2N3HpsvX6qZxRmMq-20" value="" style="edgeStyle=orthogonalEdgeStyle;rounded=0;orthogonalLoop=1;jettySize=auto;html=1;fontFamily=Tahoma;fontSize=10;fontStyle=0" parent="1" source="AxYj2N3HpsvX6qZxRmMq-6" target="AxYj2N3HpsvX6qZxRmMq-19" edge="1">
          <mxGeometry relative="1" as="geometry" />
        </mxCell>
        <mxCell id="AxYj2N3HpsvX6qZxRmMq-6" value="3. Avaliação" style="rounded=0;whiteSpace=wrap;html=1;fontFamily=Tahoma;fontSize=10;fillColor=#dae8fc;strokeColor=#6c8ebf;fontStyle=0" parent="1" vertex="1">
          <mxGeometry x="80" y="400" width="120" height="40" as="geometry" />
        </mxCell>
        <mxCell id="AxYj2N3HpsvX6qZxRmMq-10" value="" style="edgeStyle=orthogonalEdgeStyle;rounded=0;orthogonalLoop=1;jettySize=auto;html=1;fontFamily=Tahoma;fontSize=10;fontStyle=0" parent="1" source="AxYj2N3HpsvX6qZxRmMq-7" target="AxYj2N3HpsvX6qZxRmMq-6" edge="1">
          <mxGeometry relative="1" as="geometry" />
        </mxCell>
        <mxCell id="AxYj2N3HpsvX6qZxRmMq-12" value="Sim" style="edgeLabel;html=1;align=center;verticalAlign=middle;resizable=0;points=[];fontFamily=Tahoma;fontSize=10;labelBorderColor=#97D077;fontColor=#97D077;fontStyle=0" parent="AxYj2N3HpsvX6qZxRmMq-10" vertex="1" connectable="0">
          <mxGeometry x="-0.425" y="-1" relative="1" as="geometry">
            <mxPoint x="1" as="offset" />
          </mxGeometry>
        </mxCell>
        <mxCell id="AxYj2N3HpsvX6qZxRmMq-7" value="a. Avaliador disponível?" style="rhombus;whiteSpace=wrap;html=1;fontSize=10;fontFamily=Tahoma;fillColor=#fff2cc;strokeColor=#d6b656;fontStyle=0" parent="1" vertex="1">
          <mxGeometry x="80" y="280" width="120" height="80" as="geometry" />
        </mxCell>
        <mxCell id="AxYj2N3HpsvX6qZxRmMq-17" style="edgeStyle=orthogonalEdgeStyle;rounded=0;orthogonalLoop=1;jettySize=auto;html=1;entryX=1;entryY=1;entryDx=0;entryDy=0;exitX=1;exitY=0.5;exitDx=0;exitDy=0;fontFamily=Tahoma;fontSize=10;fontStyle=0" parent="1" source="AxYj2N3HpsvX6qZxRmMq-7" target="AxYj2N3HpsvX6qZxRmMq-7" edge="1">
          <mxGeometry relative="1" as="geometry">
            <Array as="points">
              <mxPoint x="240" y="320" />
              <mxPoint x="240" y="340" />
            </Array>
          </mxGeometry>
        </mxCell>
        <mxCell id="AxYj2N3HpsvX6qZxRmMq-18" value="Não" style="edgeLabel;html=1;align=center;verticalAlign=middle;resizable=0;points=[];fontFamily=Tahoma;fontSize=10;fontColor=#EA6B66;labelBorderColor=#EA6B66;fontStyle=0" parent="AxYj2N3HpsvX6qZxRmMq-17" vertex="1" connectable="0">
          <mxGeometry x="-0.6123" y="-1" relative="1" as="geometry">
            <mxPoint x="-5" y="-1" as="offset" />
          </mxGeometry>
        </mxCell>
        <mxCell id="AxYj2N3HpsvX6qZxRmMq-21" style="edgeStyle=orthogonalEdgeStyle;rounded=0;orthogonalLoop=1;jettySize=auto;html=1;entryX=0;entryY=0.5;entryDx=0;entryDy=0;exitX=0;exitY=0.5;exitDx=0;exitDy=0;fontFamily=Tahoma;fontSize=10;fontStyle=0" parent="1" source="AxYj2N3HpsvX6qZxRmMq-19" target="AxYj2N3HpsvX6qZxRmMq-7" edge="1">
          <mxGeometry relative="1" as="geometry">
            <Array as="points">
              <mxPoint x="40" y="520" />
              <mxPoint x="40" y="320" />
            </Array>
          </mxGeometry>
        </mxCell>
        <mxCell id="AxYj2N3HpsvX6qZxRmMq-22" value="&lt;font&gt;Sim&lt;/font&gt;" style="edgeLabel;html=1;align=center;verticalAlign=middle;resizable=0;points=[];fontFamily=Tahoma;fontSize=10;labelBorderColor=#97D077;fontColor=#97D077;fontStyle=0" parent="AxYj2N3HpsvX6qZxRmMq-21" vertex="1" connectable="0">
          <mxGeometry x="0.0326" relative="1" as="geometry">
            <mxPoint x="20" y="105" as="offset" />
          </mxGeometry>
        </mxCell>
        <mxCell id="AxYj2N3HpsvX6qZxRmMq-24" value="" style="edgeStyle=orthogonalEdgeStyle;rounded=0;orthogonalLoop=1;jettySize=auto;html=1;fontFamily=Tahoma;fontSize=10;fontStyle=0" parent="1" source="AxYj2N3HpsvX6qZxRmMq-19" target="AxYj2N3HpsvX6qZxRmMq-23" edge="1">
          <mxGeometry relative="1" as="geometry" />
        </mxCell>
        <mxCell id="AxYj2N3HpsvX6qZxRmMq-25" value="Não" style="edgeLabel;html=1;align=center;verticalAlign=middle;resizable=0;points=[];fontFamily=Tahoma;fontSize=10;labelBorderColor=#EA6B66;fontColor=#EA6B66;fontStyle=0" parent="AxYj2N3HpsvX6qZxRmMq-24" vertex="1" connectable="0">
          <mxGeometry x="-0.65" y="2" relative="1" as="geometry">
            <mxPoint x="-2" y="2" as="offset" />
          </mxGeometry>
        </mxCell>
        <mxCell id="AxYj2N3HpsvX6qZxRmMq-19" value="b. Outra avaliação agendada?" style="rhombus;whiteSpace=wrap;html=1;fontSize=10;fontFamily=Tahoma;fillColor=#fff2cc;strokeColor=#d6b656;fontStyle=0" parent="1" vertex="1">
          <mxGeometry x="80" y="480" width="120" height="80" as="geometry" />
        </mxCell>
        <mxCell id="AxYj2N3HpsvX6qZxRmMq-28" style="edgeStyle=orthogonalEdgeStyle;rounded=0;orthogonalLoop=1;jettySize=auto;html=1;exitX=0;exitY=0.5;exitDx=0;exitDy=0;endArrow=none;endFill=0;fontStyle=0" parent="1" source="AxYj2N3HpsvX6qZxRmMq-23" edge="1">
          <mxGeometry relative="1" as="geometry">
            <mxPoint x="40" y="520" as="targetPoint" />
            <Array as="points">
              <mxPoint x="40" y="640" />
            </Array>
          </mxGeometry>
        </mxCell>
        <mxCell id="AxYj2N3HpsvX6qZxRmMq-30" value="Não" style="edgeLabel;html=1;align=center;verticalAlign=middle;resizable=0;points=[];labelBorderColor=#EA6B66;fontColor=#EA6B66;fontStyle=0" parent="AxYj2N3HpsvX6qZxRmMq-28" vertex="1" connectable="0">
          <mxGeometry x="-0.7272" y="-1" relative="1" as="geometry">
            <mxPoint x="2" y="1" as="offset" />
          </mxGeometry>
        </mxCell>
        <mxCell id="AxYj2N3HpsvX6qZxRmMq-33" value="" style="edgeStyle=orthogonalEdgeStyle;rounded=0;orthogonalLoop=1;jettySize=auto;html=1;fontStyle=0" parent="1" source="AxYj2N3HpsvX6qZxRmMq-23" edge="1">
          <mxGeometry relative="1" as="geometry">
            <mxPoint x="140" y="720" as="targetPoint" />
          </mxGeometry>
        </mxCell>
        <mxCell id="AxYj2N3HpsvX6qZxRmMq-34" value="&lt;font face=&quot;Tahoma&quot; style=&quot;font-size: 10px;&quot;&gt;Sim&lt;/font&gt;" style="edgeLabel;html=1;align=center;verticalAlign=middle;resizable=0;points=[];labelBorderColor=#97D077;fontColor=#97D077;fontStyle=0" parent="AxYj2N3HpsvX6qZxRmMq-33" vertex="1" connectable="0">
          <mxGeometry x="-0.3643" y="-2" relative="1" as="geometry">
            <mxPoint x="2" y="-3" as="offset" />
          </mxGeometry>
        </mxCell>
        <mxCell id="AxYj2N3HpsvX6qZxRmMq-23" value="c. Avaliação terapêutica realizada?" style="rhombus;whiteSpace=wrap;html=1;fontSize=10;fontFamily=Tahoma;fillColor=#fff2cc;strokeColor=#d6b656;fontStyle=0" parent="1" vertex="1">
          <mxGeometry x="80" y="600" width="120" height="80" as="geometry" />
        </mxCell>
        <mxCell id="AxYj2N3HpsvX6qZxRmMq-40" value="" style="edgeStyle=orthogonalEdgeStyle;rounded=0;orthogonalLoop=1;jettySize=auto;html=1;fontStyle=0" parent="1" source="AxYj2N3HpsvX6qZxRmMq-38" target="AxYj2N3HpsvX6qZxRmMq-39" edge="1">
          <mxGeometry relative="1" as="geometry" />
        </mxCell>
        <mxCell id="AxYj2N3HpsvX6qZxRmMq-49" value="Sim" style="edgeLabel;html=1;align=center;verticalAlign=middle;resizable=0;points=[];fontSize=10;fontFamily=Tahoma;horizontal=1;labelBorderColor=#97D077;fontColor=#97D077;fontStyle=0" parent="AxYj2N3HpsvX6qZxRmMq-40" vertex="1" connectable="0">
          <mxGeometry x="-0.16" relative="1" as="geometry">
            <mxPoint y="-7" as="offset" />
          </mxGeometry>
        </mxCell>
        <mxCell id="AxYj2N3HpsvX6qZxRmMq-42" value="" style="edgeStyle=orthogonalEdgeStyle;rounded=0;orthogonalLoop=1;jettySize=auto;html=1;fontStyle=0" parent="1" source="AxYj2N3HpsvX6qZxRmMq-38" target="AxYj2N3HpsvX6qZxRmMq-41" edge="1">
          <mxGeometry relative="1" as="geometry" />
        </mxCell>
        <mxCell id="AxYj2N3HpsvX6qZxRmMq-50" value="Não" style="edgeLabel;html=1;align=center;verticalAlign=middle;resizable=0;points=[];fontSize=10;fontFamily=Tahoma;labelBorderColor=#EA6B66;fontColor=#EA6B66;fontStyle=0" parent="AxYj2N3HpsvX6qZxRmMq-42" vertex="1" connectable="0">
          <mxGeometry x="-0.2" relative="1" as="geometry">
            <mxPoint as="offset" />
          </mxGeometry>
        </mxCell>
        <mxCell id="AxYj2N3HpsvX6qZxRmMq-38" value="d. Representante deseja assinar contrato?" style="rhombus;whiteSpace=wrap;html=1;fontSize=10;fontFamily=Tahoma;fillColor=#fff2cc;strokeColor=#d6b656;fontStyle=0" parent="1" vertex="1">
          <mxGeometry x="80" y="720" width="120" height="80" as="geometry" />
        </mxCell>
        <mxCell id="AxYj2N3HpsvX6qZxRmMq-52" style="edgeStyle=orthogonalEdgeStyle;rounded=0;orthogonalLoop=1;jettySize=auto;html=1;entryX=0.5;entryY=1;entryDx=0;entryDy=0;" parent="1" source="AxYj2N3HpsvX6qZxRmMq-39" target="AxYj2N3HpsvX6qZxRmMq-41" edge="1">
          <mxGeometry relative="1" as="geometry" />
        </mxCell>
        <mxCell id="AxYj2N3HpsvX6qZxRmMq-39" value="4. Contratação" style="rounded=0;whiteSpace=wrap;html=1;fontFamily=Tahoma;fontSize=10;fillColor=#dae8fc;strokeColor=#6c8ebf;fontStyle=0" parent="1" vertex="1">
          <mxGeometry x="80" y="840" width="120" height="40" as="geometry" />
        </mxCell>
        <mxCell id="AxYj2N3HpsvX6qZxRmMq-41" value="Fim" style="rounded=1;whiteSpace=wrap;html=1;fontSize=10;fontFamily=Tahoma;fillColor=#f8cecc;strokeColor=#b85450;fontStyle=0" parent="1" vertex="1">
          <mxGeometry x="240" y="740" width="40" height="40" as="geometry" />
        </mxCell>
        <mxCell id="AxYj2N3HpsvX6qZxRmMq-54" value="&lt;font&gt;Cadastro a contratação v1&lt;br&gt;&lt;/font&gt;" style="text;html=1;align=center;verticalAlign=middle;whiteSpace=wrap;rounded=0;fontFamily=Tahoma;fontStyle=1" parent="1" vertex="1">
          <mxGeometry x="20" width="280" height="20" as="geometry" />
        </mxCell>
        <mxCell id="AxYj2N3HpsvX6qZxRmMq-62" value="" style="edgeStyle=orthogonalEdgeStyle;rounded=0;orthogonalLoop=1;jettySize=auto;html=1;" parent="1" edge="1">
          <mxGeometry relative="1" as="geometry">
            <mxPoint x="460" y="70" as="sourcePoint" />
            <mxPoint x="460.0232558139536" y="120" as="targetPoint" />
          </mxGeometry>
        </mxCell>
        <mxCell id="AxYj2N3HpsvX6qZxRmMq-57" value="Início" style="rounded=1;whiteSpace=wrap;html=1;fontSize=10;fontFamily=Tahoma;fillColor=#d5e8d4;strokeColor=#82b366;fontStyle=0;glass=0;" parent="1" vertex="1">
          <mxGeometry x="440" y="40" width="40" height="40" as="geometry" />
        </mxCell>
        <mxCell id="6fb1cv3qGu5dzmVjiC8O-5" value="" style="edgeStyle=orthogonalEdgeStyle;rounded=0;orthogonalLoop=1;jettySize=auto;html=1;" edge="1" parent="1" source="6fb1cv3qGu5dzmVjiC8O-2" target="6fb1cv3qGu5dzmVjiC8O-4">
          <mxGeometry relative="1" as="geometry" />
        </mxCell>
        <mxCell id="6fb1cv3qGu5dzmVjiC8O-2" value="Cadastramento do paciente" style="rounded=0;whiteSpace=wrap;html=1;fontSize=10;fontFamily=Tahoma;fillColor=#dae8fc;strokeColor=#6c8ebf;fontStyle=0" vertex="1" parent="1">
          <mxGeometry x="400" y="120" width="120" height="40" as="geometry" />
        </mxCell>
        <mxCell id="6fb1cv3qGu5dzmVjiC8O-24" value="" style="edgeStyle=orthogonalEdgeStyle;rounded=0;orthogonalLoop=1;jettySize=auto;html=1;" edge="1" parent="1" source="6fb1cv3qGu5dzmVjiC8O-4" target="6fb1cv3qGu5dzmVjiC8O-7">
          <mxGeometry relative="1" as="geometry" />
        </mxCell>
        <mxCell id="6fb1cv3qGu5dzmVjiC8O-4" value="Agendamento de sessão avaliativa" style="rounded=0;whiteSpace=wrap;html=1;fontSize=10;fontFamily=Tahoma;fillColor=#dae8fc;strokeColor=#6c8ebf;fontStyle=0" vertex="1" parent="1">
          <mxGeometry x="400" y="200" width="120" height="40" as="geometry" />
        </mxCell>
        <mxCell id="6fb1cv3qGu5dzmVjiC8O-7" value="Avaliador disponível?" style="rhombus;whiteSpace=wrap;html=1;fontSize=10;fontFamily=Tahoma;fillColor=#fff2cc;strokeColor=#d6b656;fontStyle=0;rounded=0;shadow=0;" vertex="1" parent="1">
          <mxGeometry x="400" y="280" width="120" height="80" as="geometry" />
        </mxCell>
        <mxCell id="6fb1cv3qGu5dzmVjiC8O-28" style="edgeStyle=orthogonalEdgeStyle;rounded=0;orthogonalLoop=1;jettySize=auto;html=1;entryX=0.5;entryY=0;entryDx=0;entryDy=0;" edge="1" parent="1" source="6fb1cv3qGu5dzmVjiC8O-8" target="6fb1cv3qGu5dzmVjiC8O-21">
          <mxGeometry relative="1" as="geometry" />
        </mxCell>
        <mxCell id="6fb1cv3qGu5dzmVjiC8O-8" value="Sessão avaliativa" style="rounded=0;whiteSpace=wrap;html=1;fontFamily=Tahoma;fontSize=10;fillColor=#dae8fc;strokeColor=#6c8ebf;fontStyle=0;flipH=0;flipV=0;" vertex="1" parent="1">
          <mxGeometry x="400" y="400" width="120" height="40" as="geometry" />
        </mxCell>
        <mxCell id="6fb1cv3qGu5dzmVjiC8O-29" value="" style="edgeStyle=orthogonalEdgeStyle;rounded=0;orthogonalLoop=1;jettySize=auto;html=1;" edge="1" parent="1" source="6fb1cv3qGu5dzmVjiC8O-21" target="6fb1cv3qGu5dzmVjiC8O-23">
          <mxGeometry relative="1" as="geometry" />
        </mxCell>
        <mxCell id="6fb1cv3qGu5dzmVjiC8O-21" value="Pagamento" style="rounded=0;whiteSpace=wrap;html=1;fontFamily=Tahoma;fontSize=10;fillColor=#dae8fc;strokeColor=#6c8ebf;fontStyle=0" vertex="1" parent="1">
          <mxGeometry x="400" y="480" width="120" height="40" as="geometry" />
        </mxCell>
        <mxCell id="6fb1cv3qGu5dzmVjiC8O-30" style="edgeStyle=orthogonalEdgeStyle;rounded=0;orthogonalLoop=1;jettySize=auto;html=1;" edge="1" parent="1">
          <mxGeometry relative="1" as="geometry">
            <mxPoint x="400" y="600" as="sourcePoint" />
            <mxPoint x="400" y="320" as="targetPoint" />
            <Array as="points">
              <mxPoint x="360" y="600" />
              <mxPoint x="360" y="320" />
              <mxPoint x="400" y="320" />
            </Array>
          </mxGeometry>
        </mxCell>
        <mxCell id="6fb1cv3qGu5dzmVjiC8O-34" value="" style="edgeStyle=orthogonalEdgeStyle;rounded=0;orthogonalLoop=1;jettySize=auto;html=1;" edge="1" parent="1" source="6fb1cv3qGu5dzmVjiC8O-23">
          <mxGeometry relative="1" as="geometry">
            <mxPoint x="459.9999999999999" y="680" as="targetPoint" />
          </mxGeometry>
        </mxCell>
        <mxCell id="6fb1cv3qGu5dzmVjiC8O-23" value="Outra sessão agendada?" style="rhombus;whiteSpace=wrap;html=1;fontSize=10;fontFamily=Tahoma;fillColor=#fff2cc;strokeColor=#d6b656;fontStyle=0" vertex="1" parent="1">
          <mxGeometry x="400" y="560" width="120" height="80" as="geometry" />
        </mxCell>
        <mxCell id="6fb1cv3qGu5dzmVjiC8O-33" style="edgeStyle=orthogonalEdgeStyle;rounded=0;orthogonalLoop=1;jettySize=auto;html=1;entryX=1;entryY=1;entryDx=0;entryDy=0;exitX=1;exitY=0.5;exitDx=0;exitDy=0;" edge="1" parent="1" source="6fb1cv3qGu5dzmVjiC8O-7" target="6fb1cv3qGu5dzmVjiC8O-7">
          <mxGeometry relative="1" as="geometry">
            <Array as="points">
              <mxPoint x="560" y="320" />
              <mxPoint x="560" y="340" />
            </Array>
          </mxGeometry>
        </mxCell>
        <mxCell id="6fb1cv3qGu5dzmVjiC8O-40" value="" style="edgeStyle=orthogonalEdgeStyle;rounded=0;orthogonalLoop=1;jettySize=auto;html=1;" edge="1" parent="1" source="6fb1cv3qGu5dzmVjiC8O-37">
          <mxGeometry relative="1" as="geometry">
            <mxPoint x="460" y="799.9999999999998" as="targetPoint" />
          </mxGeometry>
        </mxCell>
        <mxCell id="6fb1cv3qGu5dzmVjiC8O-50" style="edgeStyle=orthogonalEdgeStyle;rounded=0;orthogonalLoop=1;jettySize=auto;html=1;entryX=0;entryY=0.5;entryDx=0;entryDy=0;exitX=0;exitY=0.5;exitDx=0;exitDy=0;" edge="1" parent="1" source="6fb1cv3qGu5dzmVjiC8O-37" target="6fb1cv3qGu5dzmVjiC8O-49">
          <mxGeometry relative="1" as="geometry">
            <Array as="points">
              <mxPoint x="360" y="720" />
              <mxPoint x="360" y="980" />
            </Array>
          </mxGeometry>
        </mxCell>
        <mxCell id="6fb1cv3qGu5dzmVjiC8O-37" value="Representante deseja assinar contrato?" style="rhombus;whiteSpace=wrap;html=1;fontSize=10;fontFamily=Tahoma;fillColor=#fff2cc;strokeColor=#d6b656;fontStyle=0" vertex="1" parent="1">
          <mxGeometry x="400" y="680" width="120" height="80" as="geometry" />
        </mxCell>
        <mxCell id="6fb1cv3qGu5dzmVjiC8O-51" value="" style="edgeStyle=orthogonalEdgeStyle;rounded=0;orthogonalLoop=1;jettySize=auto;html=1;" edge="1" parent="1" source="6fb1cv3qGu5dzmVjiC8O-41" target="6fb1cv3qGu5dzmVjiC8O-49">
          <mxGeometry relative="1" as="geometry" />
        </mxCell>
        <mxCell id="6fb1cv3qGu5dzmVjiC8O-41" value="Contratação" style="rounded=0;whiteSpace=wrap;html=1;fontFamily=Tahoma;fontSize=10;fillColor=#dae8fc;strokeColor=#6c8ebf;fontStyle=0" vertex="1" parent="1">
          <mxGeometry x="400" y="880" width="120" height="40" as="geometry" />
        </mxCell>
        <mxCell id="6fb1cv3qGu5dzmVjiC8O-44" value="" style="edgeStyle=orthogonalEdgeStyle;rounded=0;orthogonalLoop=1;jettySize=auto;html=1;fontFamily=Tahoma;fontSize=10;fontStyle=0" edge="1" parent="1">
          <mxGeometry relative="1" as="geometry">
            <mxPoint x="459.74" y="360" as="sourcePoint" />
            <mxPoint x="459.74" y="400" as="targetPoint" />
            <Array as="points">
              <mxPoint x="460" y="380" />
              <mxPoint x="460" y="380" />
            </Array>
          </mxGeometry>
        </mxCell>
        <mxCell id="6fb1cv3qGu5dzmVjiC8O-47" value="Sim" style="text;html=1;align=center;verticalAlign=middle;whiteSpace=wrap;rounded=0;labelBackgroundColor=default;labelBorderColor=#97D077;fontColor=#97D077;fontFamily=Tahoma;fontSize=10;" vertex="1" parent="1">
          <mxGeometry x="450" y="370" width="20" height="10" as="geometry" />
        </mxCell>
        <mxCell id="6fb1cv3qGu5dzmVjiC8O-48" value="Não" style="text;html=1;align=center;verticalAlign=middle;whiteSpace=wrap;rounded=0;labelBackgroundColor=default;labelBorderColor=#EA6B66;fontColor=#EA6B66;fontFamily=Tahoma;fontSize=10;" vertex="1" parent="1">
          <mxGeometry x="530" y="315" width="20" height="10" as="geometry" />
        </mxCell>
        <mxCell id="6fb1cv3qGu5dzmVjiC8O-49" value="Fim" style="rounded=1;whiteSpace=wrap;html=1;fontSize=10;fontFamily=Tahoma;fillColor=#f8cecc;strokeColor=#b85450;fontStyle=0" vertex="1" parent="1">
          <mxGeometry x="440" y="960" width="40" height="40" as="geometry" />
        </mxCell>
        <mxCell id="6fb1cv3qGu5dzmVjiC8O-52" value="Sim" style="text;html=1;align=center;verticalAlign=middle;whiteSpace=wrap;rounded=0;labelBackgroundColor=default;labelBorderColor=#97D077;fontColor=#97D077;fontFamily=Tahoma;fontSize=10;" vertex="1" parent="1">
          <mxGeometry x="370" y="595" width="20" height="10" as="geometry" />
        </mxCell>
        <mxCell id="6fb1cv3qGu5dzmVjiC8O-60" value="Não" style="text;html=1;align=center;verticalAlign=middle;whiteSpace=wrap;rounded=0;labelBackgroundColor=default;labelBorderColor=#EA6B66;fontColor=#EA6B66;fontFamily=Tahoma;fontSize=10;" vertex="1" parent="1">
          <mxGeometry x="450" y="650" width="20" height="10" as="geometry" />
        </mxCell>
        <mxCell id="6fb1cv3qGu5dzmVjiC8O-61" value="Sim" style="text;html=1;align=center;verticalAlign=middle;whiteSpace=wrap;rounded=0;labelBackgroundColor=default;labelBorderColor=#97D077;fontColor=#97D077;fontFamily=Tahoma;fontSize=10;" vertex="1" parent="1">
          <mxGeometry x="450" y="770" width="20" height="10" as="geometry" />
        </mxCell>
        <mxCell id="6fb1cv3qGu5dzmVjiC8O-63" value="" style="edgeStyle=orthogonalEdgeStyle;rounded=0;orthogonalLoop=1;jettySize=auto;html=1;" edge="1" parent="1" source="6fb1cv3qGu5dzmVjiC8O-62" target="6fb1cv3qGu5dzmVjiC8O-41">
          <mxGeometry relative="1" as="geometry" />
        </mxCell>
        <mxCell id="6fb1cv3qGu5dzmVjiC8O-62" value="Indicação terapêutica" style="rounded=0;whiteSpace=wrap;html=1;fontFamily=Tahoma;fontSize=10;fillColor=#dae8fc;strokeColor=#6c8ebf;fontStyle=0" vertex="1" parent="1">
          <mxGeometry x="400" y="800" width="120" height="40" as="geometry" />
        </mxCell>
        <mxCell id="6fb1cv3qGu5dzmVjiC8O-64" value="Não" style="text;html=1;align=center;verticalAlign=middle;whiteSpace=wrap;rounded=0;labelBackgroundColor=default;labelBorderColor=#EA6B66;fontColor=#EA6B66;fontFamily=Tahoma;fontSize=10;" vertex="1" parent="1">
          <mxGeometry x="370" y="715" width="20" height="10" as="geometry" />
        </mxCell>
        <mxCell id="6fb1cv3qGu5dzmVjiC8O-65" value="&lt;font&gt;Cadastro a contratação v2&lt;/font&gt;" style="text;html=1;align=center;verticalAlign=middle;whiteSpace=wrap;rounded=0;fontFamily=Tahoma;fontStyle=1" vertex="1" parent="1">
          <mxGeometry x="340" width="240" height="20" as="geometry" />
        </mxCell>
      </root>
    </mxGraphModel>
  </diagram>
  <diagram id="-H2Ym6b-xVOO1FJQakfA" name="Página-2">
    <mxGraphModel dx="990" dy="778" grid="1" gridSize="10" guides="1" tooltips="1" connect="1" arrows="1" fold="1" page="1" pageScale="1" pageWidth="1654" pageHeight="1169" math="0" shadow="0">
      <root>
        <mxCell id="0" />
        <mxCell id="1" parent="0" />
        <mxCell id="412sFGuEXtjVg8MRsW1V-1" value="Avaliador" style="shape=umlActor;verticalLabelPosition=bottom;verticalAlign=top;html=1;outlineConnect=0;" parent="1" vertex="1">
          <mxGeometry x="400" y="140" width="40" height="80" as="geometry" />
        </mxCell>
        <mxCell id="412sFGuEXtjVg8MRsW1V-3" value="Avaliador diagnóstico" style="shape=umlActor;verticalLabelPosition=bottom;verticalAlign=top;html=1;outlineConnect=0;" parent="1" vertex="1">
          <mxGeometry x="280" y="140" width="40" height="80" as="geometry" />
        </mxCell>
        <mxCell id="412sFGuEXtjVg8MRsW1V-9" style="edgeStyle=orthogonalEdgeStyle;rounded=0;orthogonalLoop=1;jettySize=auto;html=1;curved=0;endArrow=block;endFill=0;" parent="1" source="412sFGuEXtjVg8MRsW1V-4" target="412sFGuEXtjVg8MRsW1V-1" edge="1">
          <mxGeometry relative="1" as="geometry">
            <mxPoint x="450" y="210" as="targetPoint" />
            <Array as="points">
              <mxPoint x="500" y="180" />
              <mxPoint x="500" y="180" />
            </Array>
          </mxGeometry>
        </mxCell>
        <mxCell id="035aMvz0Z2VaREGLC2U0-2" style="edgeStyle=orthogonalEdgeStyle;rounded=0;orthogonalLoop=1;jettySize=auto;html=1;entryX=0.5;entryY=0;entryDx=0;entryDy=0;endArrow=none;endFill=0;" edge="1" parent="1" source="412sFGuEXtjVg8MRsW1V-4" target="035aMvz0Z2VaREGLC2U0-1">
          <mxGeometry relative="1" as="geometry" />
        </mxCell>
        <mxCell id="412sFGuEXtjVg8MRsW1V-4" value="Avaliador terapêutico" style="shape=umlActor;verticalLabelPosition=bottom;verticalAlign=top;html=1;outlineConnect=0;" parent="1" vertex="1">
          <mxGeometry x="520" y="140" width="40" height="80" as="geometry" />
        </mxCell>
        <mxCell id="412sFGuEXtjVg8MRsW1V-8" style="edgeStyle=orthogonalEdgeStyle;rounded=0;orthogonalLoop=1;jettySize=auto;html=1;curved=0;endArrow=block;endFill=0;" parent="1" source="412sFGuEXtjVg8MRsW1V-3" target="412sFGuEXtjVg8MRsW1V-1" edge="1">
          <mxGeometry relative="1" as="geometry">
            <Array as="points">
              <mxPoint x="350" y="180" />
              <mxPoint x="350" y="180" />
            </Array>
          </mxGeometry>
        </mxCell>
        <mxCell id="412sFGuEXtjVg8MRsW1V-60" style="edgeStyle=orthogonalEdgeStyle;rounded=0;orthogonalLoop=1;jettySize=auto;html=1;endArrow=none;endFill=0;" parent="1" source="412sFGuEXtjVg8MRsW1V-13" edge="1">
          <mxGeometry relative="1" as="geometry">
            <mxPoint x="420" y="240" as="targetPoint" />
          </mxGeometry>
        </mxCell>
        <mxCell id="412sFGuEXtjVg8MRsW1V-13" value="Visualizar sessão" style="ellipse;whiteSpace=wrap;html=1;" parent="1" vertex="1">
          <mxGeometry x="360" y="300" width="120" height="80" as="geometry" />
        </mxCell>
        <mxCell id="412sFGuEXtjVg8MRsW1V-46" style="rounded=0;orthogonalLoop=1;jettySize=auto;html=1;entryX=0;entryY=0.5;entryDx=0;entryDy=0;endArrow=open;endFill=0;dashed=1;" parent="1" source="412sFGuEXtjVg8MRsW1V-14" target="412sFGuEXtjVg8MRsW1V-13" edge="1">
          <mxGeometry relative="1" as="geometry" />
        </mxCell>
        <mxCell id="412sFGuEXtjVg8MRsW1V-14" value="Confirmar disponibilidade" style="ellipse;whiteSpace=wrap;html=1;" parent="1" vertex="1">
          <mxGeometry x="40" y="420" width="120" height="80" as="geometry" />
        </mxCell>
        <mxCell id="412sFGuEXtjVg8MRsW1V-18" value="Iniciar sessão" style="ellipse;whiteSpace=wrap;html=1;" parent="1" vertex="1">
          <mxGeometry x="200" y="420" width="120" height="80" as="geometry" />
        </mxCell>
        <mxCell id="412sFGuEXtjVg8MRsW1V-61" style="rounded=0;orthogonalLoop=1;jettySize=auto;html=1;entryX=1;entryY=0.5;entryDx=0;entryDy=0;dashed=1;endArrow=open;endFill=0;" parent="1" source="412sFGuEXtjVg8MRsW1V-26" target="412sFGuEXtjVg8MRsW1V-13" edge="1">
          <mxGeometry relative="1" as="geometry" />
        </mxCell>
        <mxCell id="412sFGuEXtjVg8MRsW1V-26" value="Encerrar sessão" style="ellipse;whiteSpace=wrap;html=1;" parent="1" vertex="1">
          <mxGeometry x="680" y="420" width="120" height="80" as="geometry" />
        </mxCell>
        <mxCell id="412sFGuEXtjVg8MRsW1V-30" value="Fazer login" style="ellipse;whiteSpace=wrap;html=1;" parent="1" vertex="1">
          <mxGeometry x="280" y="20" width="120" height="80" as="geometry" />
        </mxCell>
        <mxCell id="412sFGuEXtjVg8MRsW1V-39" value="" style="edgeStyle=orthogonalEdgeStyle;rounded=0;orthogonalLoop=1;jettySize=auto;html=1;endArrow=open;endFill=0;dashed=1;" parent="1" source="412sFGuEXtjVg8MRsW1V-32" target="412sFGuEXtjVg8MRsW1V-13" edge="1">
          <mxGeometry relative="1" as="geometry" />
        </mxCell>
        <mxCell id="412sFGuEXtjVg8MRsW1V-32" value="Incluir comentário" style="ellipse;whiteSpace=wrap;html=1;" parent="1" vertex="1">
          <mxGeometry x="360" y="420" width="120" height="80" as="geometry" />
        </mxCell>
        <mxCell id="412sFGuEXtjVg8MRsW1V-33" value="Anexar documento" style="ellipse;whiteSpace=wrap;html=1;" parent="1" vertex="1">
          <mxGeometry x="520" y="420" width="120" height="80" as="geometry" />
        </mxCell>
        <mxCell id="412sFGuEXtjVg8MRsW1V-34" value="&lt;font style=&quot;font-size: 36px;&quot;&gt;Separar sessão de avaliação?&lt;/font&gt;" style="text;html=1;align=center;verticalAlign=middle;whiteSpace=wrap;rounded=0;" parent="1" vertex="1">
          <mxGeometry x="20" y="20" width="200" height="200" as="geometry" />
        </mxCell>
        <mxCell id="412sFGuEXtjVg8MRsW1V-66" style="edgeStyle=orthogonalEdgeStyle;rounded=0;orthogonalLoop=1;jettySize=auto;html=1;endArrow=none;endFill=0;" parent="1" source="412sFGuEXtjVg8MRsW1V-36" edge="1">
          <mxGeometry relative="1" as="geometry">
            <mxPoint x="400" y="240" as="targetPoint" />
            <Array as="points">
              <mxPoint x="20" y="580" />
              <mxPoint x="20" y="260" />
              <mxPoint x="400" y="260" />
            </Array>
          </mxGeometry>
        </mxCell>
        <mxCell id="412sFGuEXtjVg8MRsW1V-36" value="Visualizar paciente" style="ellipse;whiteSpace=wrap;html=1;" parent="1" vertex="1">
          <mxGeometry x="360" y="540" width="120" height="80" as="geometry" />
        </mxCell>
        <mxCell id="412sFGuEXtjVg8MRsW1V-42" value="Fazer logoff" style="ellipse;whiteSpace=wrap;html=1;" parent="1" vertex="1">
          <mxGeometry x="440" y="20" width="120" height="80" as="geometry" />
        </mxCell>
        <mxCell id="412sFGuEXtjVg8MRsW1V-44" style="rounded=0;orthogonalLoop=1;jettySize=auto;html=1;exitX=0.545;exitY=1.018;exitDx=0;exitDy=0;entryX=0.25;entryY=0.1;entryDx=0;entryDy=0;entryPerimeter=0;strokeColor=default;flowAnimation=0;endArrow=none;endFill=0;exitPerimeter=0;" parent="1" target="412sFGuEXtjVg8MRsW1V-1" edge="1">
          <mxGeometry relative="1" as="geometry">
            <mxPoint x="337.83" y="99.99999999999994" as="sourcePoint" />
            <mxPoint x="400" y="138.56" as="targetPoint" />
          </mxGeometry>
        </mxCell>
        <mxCell id="412sFGuEXtjVg8MRsW1V-45" style="rounded=0;orthogonalLoop=1;jettySize=auto;html=1;exitX=0.5;exitY=1;exitDx=0;exitDy=0;entryX=0.75;entryY=0.1;entryDx=0;entryDy=0;entryPerimeter=0;strokeColor=default;flowAnimation=0;endArrow=none;endFill=0;" parent="1" source="412sFGuEXtjVg8MRsW1V-42" target="412sFGuEXtjVg8MRsW1V-1" edge="1">
          <mxGeometry relative="1" as="geometry">
            <mxPoint x="468" y="94" as="sourcePoint" />
            <mxPoint x="430" y="146" as="targetPoint" />
          </mxGeometry>
        </mxCell>
        <mxCell id="412sFGuEXtjVg8MRsW1V-47" style="rounded=0;orthogonalLoop=1;jettySize=auto;html=1;entryX=0;entryY=1;entryDx=0;entryDy=0;endArrow=open;endFill=0;dashed=1;" parent="1" target="412sFGuEXtjVg8MRsW1V-13" edge="1">
          <mxGeometry relative="1" as="geometry">
            <mxPoint x="260" y="420" as="sourcePoint" />
            <mxPoint x="471" y="323" as="targetPoint" />
          </mxGeometry>
        </mxCell>
        <mxCell id="412sFGuEXtjVg8MRsW1V-48" value="&amp;lt;&amp;lt;extend&amp;gt;&amp;gt;" style="text;html=1;align=center;verticalAlign=middle;whiteSpace=wrap;rounded=0;labelBackgroundColor=default;" parent="1" vertex="1">
          <mxGeometry x="160" y="390" width="80" height="20" as="geometry" />
        </mxCell>
        <mxCell id="412sFGuEXtjVg8MRsW1V-49" value="&amp;lt;&amp;lt;extend&amp;gt;&amp;gt;" style="text;html=1;align=center;verticalAlign=middle;whiteSpace=wrap;rounded=0;labelBackgroundColor=default;" parent="1" vertex="1">
          <mxGeometry x="270" y="390" width="80" height="20" as="geometry" />
        </mxCell>
        <mxCell id="412sFGuEXtjVg8MRsW1V-50" value="&amp;lt;&amp;lt;extend&amp;gt;&amp;gt;" style="text;html=1;align=center;verticalAlign=middle;whiteSpace=wrap;rounded=0;labelBackgroundColor=default;" parent="1" vertex="1">
          <mxGeometry x="380" y="390" width="80" height="20" as="geometry" />
        </mxCell>
        <mxCell id="412sFGuEXtjVg8MRsW1V-51" style="rounded=0;orthogonalLoop=1;jettySize=auto;html=1;endArrow=open;endFill=0;dashed=1;exitX=0.5;exitY=0;exitDx=0;exitDy=0;entryX=1;entryY=1;entryDx=0;entryDy=0;" parent="1" source="412sFGuEXtjVg8MRsW1V-33" target="412sFGuEXtjVg8MRsW1V-13" edge="1">
          <mxGeometry relative="1" as="geometry">
            <mxPoint x="578" y="420" as="sourcePoint" />
            <mxPoint x="470" y="370" as="targetPoint" />
          </mxGeometry>
        </mxCell>
        <mxCell id="412sFGuEXtjVg8MRsW1V-52" value="&amp;lt;&amp;lt;extend&amp;gt;&amp;gt;" style="text;html=1;align=center;verticalAlign=middle;whiteSpace=wrap;rounded=0;labelBackgroundColor=default;flipH=1;" parent="1" vertex="1">
          <mxGeometry x="490" y="390" width="80" height="20" as="geometry" />
        </mxCell>
        <mxCell id="412sFGuEXtjVg8MRsW1V-56" style="rounded=0;orthogonalLoop=1;jettySize=auto;html=1;entryX=0.5;entryY=1;entryDx=0;entryDy=0;endArrow=none;endFill=0;dashed=1;exitX=1;exitY=0;exitDx=0;exitDy=0;startArrow=open;startFill=0;" parent="1" source="412sFGuEXtjVg8MRsW1V-36" target="412sFGuEXtjVg8MRsW1V-33" edge="1">
          <mxGeometry relative="1" as="geometry">
            <mxPoint x="460" y="552" as="sourcePoint" />
            <mxPoint x="578" y="500" as="targetPoint" />
          </mxGeometry>
        </mxCell>
        <mxCell id="412sFGuEXtjVg8MRsW1V-57" value="&amp;lt;&amp;lt;extend&amp;gt;&amp;gt;" style="text;html=1;align=center;verticalAlign=middle;whiteSpace=wrap;rounded=0;labelBackgroundColor=default;" parent="1" vertex="1">
          <mxGeometry x="490" y="510" width="80" height="20" as="geometry" />
        </mxCell>
        <mxCell id="412sFGuEXtjVg8MRsW1V-62" value="&amp;lt;&amp;lt;extend&amp;gt;&amp;gt;" style="text;html=1;align=center;verticalAlign=middle;whiteSpace=wrap;rounded=0;labelBackgroundColor=default;flipH=1;" parent="1" vertex="1">
          <mxGeometry x="600" y="390" width="80" height="20" as="geometry" />
        </mxCell>
        <mxCell id="035aMvz0Z2VaREGLC2U0-3" style="edgeStyle=orthogonalEdgeStyle;rounded=0;orthogonalLoop=1;jettySize=auto;html=1;entryX=1;entryY=0.5;entryDx=0;entryDy=0;dashed=1;endArrow=open;endFill=0;" edge="1" parent="1" source="035aMvz0Z2VaREGLC2U0-1" target="412sFGuEXtjVg8MRsW1V-36">
          <mxGeometry relative="1" as="geometry">
            <Array as="points">
              <mxPoint x="820" y="340" />
              <mxPoint x="820" y="580" />
            </Array>
          </mxGeometry>
        </mxCell>
        <mxCell id="035aMvz0Z2VaREGLC2U0-9" style="rounded=0;orthogonalLoop=1;jettySize=auto;html=1;exitX=1;exitY=0;exitDx=0;exitDy=0;entryX=0.5;entryY=1;entryDx=0;entryDy=0;entryPerimeter=0;endArrow=none;endFill=0;" edge="1" parent="1" source="035aMvz0Z2VaREGLC2U0-1" target="035aMvz0Z2VaREGLC2U0-8">
          <mxGeometry relative="1" as="geometry">
            <mxPoint x="860" y="270" as="targetPoint" />
          </mxGeometry>
        </mxCell>
        <mxCell id="035aMvz0Z2VaREGLC2U0-1" value="Indicar terapias" style="ellipse;whiteSpace=wrap;html=1;" vertex="1" parent="1">
          <mxGeometry x="680" y="300" width="120" height="80" as="geometry" />
        </mxCell>
        <mxCell id="035aMvz0Z2VaREGLC2U0-6" value="&amp;lt;&amp;lt;extend&amp;gt;&amp;gt;" style="text;html=1;align=center;verticalAlign=middle;whiteSpace=wrap;rounded=0;labelBackgroundColor=default;" vertex="1" parent="1">
          <mxGeometry x="780" y="380" width="80" height="20" as="geometry" />
        </mxCell>
        <mxCell id="035aMvz0Z2VaREGLC2U0-8" value="Só o avaliador terapêutico tem acesso a essa funcionalidade" style="shape=note;size=10;whiteSpace=wrap;html=1;" vertex="1" parent="1">
          <mxGeometry x="800" y="180" width="120" height="80" as="geometry" />
        </mxCell>
      </root>
    </mxGraphModel>
  </diagram>
</mxfile>
